<svg width="24" height="24" viewBox="0 0 24 24" fill="none" xmlns="http://www.w3.org/2000/svg">
<g clip-path="url(#clip0_1058_1818)">
<circle cx="28" cy="-7" r="8" fill="#18F0D5"/>
<path fill-rule="evenodd" clip-rule="evenodd" d="M3 3C2.44772 3 2 3.44772 2 4C2 4.55228 2.44772 5 3 5H3.0019H3.00337H3.00474H3.00754H3.01022H3.01171H3.01331H3.05176H3.19531H3.6875H4.20177L6.52487 15.2216C6.64465 15.7486 7.16032 16.083 7.68704 15.9824C7.74792 15.9939 7.81075 16 7.875 16H18C18.4168 16 18.79 15.7414 18.9363 15.3511L21.9363 7.35112C22.0515 7.04403 22.0087 6.69998 21.8219 6.43041C21.6351 6.16083 21.328 6 21 6H6.48005L5.97513 3.77838C5.87166 3.32309 5.4669 3 5 3H3.6875H3.19531H3.05176H3.04565H3.03991H3.03853H3.03717H3.03453H3.02953H3.02065H3.01964H3.01771H3.01588H3.01331H3.00754H3.00525H3.00337H3ZM6.93459 8L8.29823 14H17.307L19.557 8H6.93459ZM10 17C8.89543 17 8 17.8954 8 19C8 20.1046 8.89543 21 10 21C11.1046 21 12 20.1046 12 19C12 17.8954 11.1046 17 10 17ZM14 19C14 17.8954 14.8954 17 16 17C17.1046 17 18 17.8954 18 19C18 20.1046 17.1046 21 16 21C14.8954 21 14 20.1046 14 19Z" fill="#0033A1"/>
</g>
<defs>
<clipPath id="clip0_1058_1818">
<rect width="24" height="24" fill="white"/>
</clipPath>
</defs>
</svg>
