<svg width="24" height="24" viewBox="0 0 24 24" fill="none" xmlns="http://www.w3.org/2000/svg">
<path fill-rule="evenodd" clip-rule="evenodd" d="M10.5 19.9967C10.5 21.1031 9.60457 22 8.5 22H6C4.34315 22 3 20.6547 3 18.9951V10.5421C3 9.70022 3.35263 8.89691 3.97205 8.32778L9.9985 2.79055C11.1121 1.76732 12.8118 1.73352 13.9651 2.71169L19.9386 7.7781C20.6118 8.34905 21 9.1878 21 10.0713V18.9951C21 20.6547 19.6568 22 18 22H15.5C14.3954 22 13.5 21.1031 13.5 19.9967V15.0252H10.5V19.9967ZM12.6727 4.24051C12.2882 3.91446 11.7217 3.92572 11.3505 4.2668L5.32402 9.80402C5.11754 9.99373 5 10.2615 5 10.5421V18.9951C5 19.5483 5.44772 19.9967 6 19.9967H8.5V14.0236C8.5 13.4704 8.94772 13.0219 9.5 13.0219H14.5C15.0523 13.0219 15.5 13.4704 15.5 14.0236V19.9967H18C18.5523 19.9967 19 19.5483 19 18.9951V10.0713C19 9.77682 18.8706 9.49724 18.6462 9.30692L12.6727 4.24051Z" fill="#6A6A6A"/>
</svg>
